<svg xmlns="http://www.w3.org/2000/svg" xml:space="preserve" width="282px" height="64px" version="1.1" style="shape-rendering:geometricPrecision; text-rendering:geometricPrecision; image-rendering:optimizeQuality; fill-rule:evenodd; clip-rule:evenodd"
viewBox="0 0 282 64"
 xmlns:xlink="http://www.w3.org/1999/xlink">
 <defs>
  <style type="text/css">
   <![CDATA[
    .fil0 {fill:#ff3a46}
    .fil1 {fill:#ff3a46}
   ]]>
  </style>
 </defs>
 <g id="Layer_x0020_1">
  <polygon class="fil0" points="176.19,38.58 171.37,38.58 171.37,53.65 176.19,53.65 "/>
  <polygon class="fil1" points="121.71,50.37 113.07,50.49 115.45,53.96 121.87,53.92 126.63,53.92 126.63,42.73 121.71,42.73 "/>
  <path class="fil0" d="M47.3 51.95c0,6.61 -3.4,6.12 -7.97,6.12 0,0 3.4,-1.3 3.64,-4.2l-7.72 0 -0.06 -8.53c0,0 0.34,-1.91 2.99,-2.28l9.12 -0.07 0 8.96zm-5.47 -5.34l0.85 0 0 3.49 -3.65 0 0 -0.69c0,-1.54 1.26,-2.8 2.8,-2.8z"/>
  <path class="fil0" d="M166.71 55.37c-0.79,0 -1.42,0.61 -1.42,1.36 0,0.75 0.63,1.36 1.42,1.36 0.78,0 1.42,-0.61 1.42,-1.36 0,-0.75 -0.64,-1.36 -1.42,-1.36z"/>
  <path class="fil0" d="M163.44 55.37c-0.79,0 -1.42,0.61 -1.42,1.36 0,0.75 0.63,1.36 1.42,1.36 0.78,0 1.42,-0.61 1.42,-1.36 0,-0.75 -0.64,-1.36 -1.42,-1.36z"/>
  <path class="fil0" d="M134.87 42.76c-0.79,0 -1.42,0.61 -1.42,1.37 0,0.75 0.63,1.36 1.42,1.36 0.78,0 1.42,-0.61 1.42,-1.36 0,-0.76 -0.64,-1.37 -1.42,-1.37z"/>
  <path class="fil0" d="M121.84 37.19c-0.78,0 -1.42,0.61 -1.42,1.36 0,0.75 0.64,1.37 1.42,1.37 0.79,0 1.43,-0.62 1.43,-1.37 0,-0.75 -0.64,-1.36 -1.43,-1.36z"/>
  <path class="fil0" d="M118.67 37.19c-0.79,0 -1.42,0.61 -1.42,1.36 0,0.75 0.63,1.37 1.42,1.37 0.78,0 1.42,-0.62 1.42,-1.37 0,-0.75 -0.64,-1.36 -1.42,-1.36z"/>
  <path class="fil0" d="M76 37.06c-0.78,0 -1.42,0.61 -1.42,1.36 0,0.75 0.64,1.37 1.42,1.37 0.79,0 1.42,-0.62 1.42,-1.37 0,-0.75 -0.63,-1.36 -1.42,-1.36z"/>
  <path class="fil0" d="M31.89 37.93c-0.79,0 -1.42,0.61 -1.42,1.37 0,0.75 0.63,1.36 1.42,1.36 0.78,0 1.42,-0.61 1.42,-1.36 0,-0.76 -0.64,-1.37 -1.42,-1.37z"/>
  <path class="fil0" d="M28.71 37.93c-0.78,0 -1.42,0.61 -1.42,1.37 0,0.75 0.64,1.36 1.42,1.36 0.79,0 1.42,-0.61 1.42,-1.36 0,-0.76 -0.63,-1.37 -1.42,-1.37z"/>
  <path class="fil0" d="M30.39 35.13c-0.78,0 -1.42,0.61 -1.42,1.36 0,0.76 0.64,1.37 1.42,1.37 0.79,0 1.42,-0.61 1.42,-1.37 0,-0.75 -0.63,-1.36 -1.42,-1.36z"/>
  <path class="fil0" d="M154.33 43.11l4.54 0 0 11.03c0,0 -0.71,3.58 -3.8,4.35 0,0 -3.4,0.34 -4.24,-0.43 0,0 3.53,-1.36 3.5,-3.65 -0.04,-2.28 0,-11.3 0,-11.3z"/>
  <polygon class="fil0" points="150.92,38.79 146.1,38.79 146.1,53.87 150.92,53.87 "/>
  <path class="fil0" d="M143.85 44.76l0 0 0 8.6c0,4.24 -4.25,4.9 -7.85,4.33 -6.3,-0.98 -5.5,-7.19 -5.38,-8.61 0.12,-0.74 0.52,-1.23 0.74,-0.52 -0.22,3.74 0.93,5.37 3.71,5.71 2.78,0.34 4.23,-2.32 4.23,-2.32l0 -4.1c0,-1.18 0.01,-2.17 0.01,-2.69l0 0 0 -2.53 2.67 0c0.97,0 1.78,0.75 1.86,1.7l0.01 0 0 0.17 0 0.26z"/>
  <polygon class="fil1" points="164.32,50.18 158.38,50.31 160.76,53.78 164.47,53.73 169.23,53.73 169.23,42.54 164.32,42.54 "/>
  <polygon class="fil1" points="76.86,50.4 70.93,50.38 73.31,53.99 77.02,53.95 81.78,53.95 81.78,43.22 76.86,43.22 "/>
  <path class="fil0" d="M113.73 47.12c0,0 -0.43,-3.15 -4.57,-4.07l-18.23 0.06c0,0 -2.41,-1.61 0.13,-3.83 -4.93,-1.36 -8.07,6.77 -1.55,8.46l18.85 0c0,0 2.04,1.05 1.23,2.78l-28.65 -0.07 2.17 3.59 30.62 -0.12 0 -6.8z"/>
  <path class="fil1" d="M51.9 50.27l-5.28 0.13 2.38 3.47 3.05 -0.04 4.77 0 0 -10.29 0 -3.26 0 -0.17 -0.01 0c-0.09,-0.95 -0.89,-1.7 -1.86,-1.7l-3.05 0 0 5.13 0 0 0 6.73z"/>
  <path class="fil0" d="M28.16 42.86l4.54 0 0 11.03c0,0 -0.71,3.58 -3.8,4.35 0,0 -3.39,0.34 -4.23,-0.43 0,0 3.52,-1.36 3.49,-3.64 -0.03,-2.29 0,-11.31 0,-11.31z"/>
  <path class="fil0" d="M2.44 42.98l4.13 0 0 7.42 5.74 0c0,0 -0.49,-0.96 -0.49,-1.49l0 -5.89 10.5 0c0,0 1.64,0.19 1.67,1.92 0.03,1.73 0,5.59 0,5.59l1.05 0 0 3.31 -5.69 0c0,0 -0.18,-4.24 -0.07,-5.35 0.02,-0.17 0.03,-0.14 0.03,-0.28 0.01,-0.4 -0.05,-0.68 -0.57,-0.65 -0.53,0.03 -2.88,0 -2.88,0l-0.03 4.21c0,0 0.45,1.46 1.33,1.96 0.04,0.07 -0.01,0.1 -0.07,0.11l-15.05 0.01c-0.02,-3.4 -0.03,-6.64 -0.04,-10.04 0,-0.71 0.05,-0.72 0.44,-0.83z"/>
  <path class="fil0" d="M71.5 51.92c0,6.6 -3.4,6.12 -7.97,6.12 0,0 3.4,-1.3 3.65,-4.21l-7.73 0 -0.06 -8.52c0,0 0.34,-1.92 3,-2.29l9.11 -0.06 0 8.96zm-5.46 -5.34l0.84 0 0 3.49 -3.65 0 0 -0.69c0,-1.54 1.26,-2.8 2.81,-2.8z"/>
  <path class="fil0" d="M262.7 10.67c0,0.25 0.07,0.32 0.32,0.32l11.58 0 0 11.59c0,0.24 0.08,0.32 0.33,0.32l5.84 0c0.25,0 0.33,-0.08 0.33,-0.32l0 -17.76c0,-0.25 -0.08,-0.32 -0.33,-0.32l-18.07 0 0 6.17z"/>
  <path class="fil0" d="M211.18 10.89l11.9 0 0 11.58c0,0.25 0.08,0.32 0.33,0.32l6.17 0 0 -18.29 -18.4 0 0 6.39z"/>
  <path class="fil0" d="M223.08 35.67l0 11.69 -11.9 0 0 6.28 18.4 0 0 -18.29 -6.17 0c-0.25,0 -0.33,0.07 -0.33,0.32z"/>
  <path class="fil0" d="M274.6 35.67l0 11.69 -11.9 0 0 6.28 18.4 0 0 -17.97c0,-0.25 -0.08,-0.32 -0.33,-0.32l-5.84 0c-0.25,0 -0.33,0.07 -0.33,0.32z"/>
  <polygon class="fil0" points="180,53.75 198.3,53.75 198.3,47.36 186.28,47.36 186.28,35.35 180,35.35 "/>
  <polygon class="fil0" points="231.53,22.9 237.8,22.9 237.8,10.89 249.82,10.89 249.82,4.5 231.53,4.5 "/>
  <polygon class="fil0" points="231.53,53.75 249.82,53.75 249.82,47.36 237.8,47.36 237.8,35.35 231.53,35.35 "/>
  <path class="fil0" d="M200.03 53.42c0,0.25 0.07,0.33 0.32,0.33l8.99 0 0 -6.39 -9.31 0 0 6.06z"/>
  <path class="fil0" d="M200.03 4.82l0 5.74c0,0.25 0.07,0.33 0.32,0.33l8.99 0 0 -6.39 -8.99 0c-0.25,0 -0.32,0.07 -0.32,0.32z"/>
  <polygon class="fil0" points="251.66,53.75 260.86,53.75 260.86,47.36 251.66,47.36 "/>
  <path class="fil0" d="M223.08 24.85l0 8.87 6.39 0 0 -9.2 -6.06 0c-0.25,0 -0.33,0.08 -0.33,0.33z"/>
  <polygon class="fil0" points="180,33.72 186.28,33.72 186.28,24.52 180,24.52 "/>
  <path class="fil0" d="M200.24 42.36c0.1,0.64 0.36,1.1 0.97,1.1l9.33 0c0.36,0 0.15,-0.19 0.64,-0.32l0 -17.1c-0.55,-0.13 -0.71,-0.43 -1.41,-0.43l-8.44 0c-0.65,0 -0.65,0.2 -1.09,0.32l0 16.43z"/>
  <path class="fil0" d="M200.24 23.77c0.01,0.25 0.3,0.54 0.55,0.54l9.85 0c0.34,0 0.53,-0.39 0.54,-0.75l0 -6.84c-0.01,-0.21 -0.06,-0.21 -0.17,-0.37 -0.12,-0.18 -0.11,-0.26 -0.35,-0.27l-9.67 0c-0.13,0.01 -0.41,0.18 -0.49,0.25 -0.18,0.17 -0.25,0.3 -0.26,0.59l0 6.85z"/>
  <path class="fil0" d="M243 15.65l0 7.14c0,1.04 1.23,0.76 2.7,0.76 1.16,0 2.31,0 3.47,0 0.48,0.71 0.32,0.94 0.32,2.06 0,1.76 -0.1,15.38 0.07,15.84 0.09,0.23 0.42,0.61 0.69,0.61l8.98 0c0.53,0 1.19,-0.3 1.19,-0.76l0 -25.65c0,-0.17 -0.53,-0.97 -0.86,-0.98l-15.81 0c-0.39,0.01 -0.75,0.93 -0.75,0.98z"/>
  <path class="fil0" d="M261.62 15.54l0 7.58c0,0.38 0.48,0.43 0.86,0.43l4.22 0c0.7,0 1.3,-0.41 1.3,-1.08l0 -6.5c0,-0.69 -0.4,-1.29 -1.08,-1.3l-4.23 0c-0.44,0.01 -1.07,0.53 -1.07,0.87z"/>
 </g>
</svg>
